<svg width="19" height="20" viewBox="0 0 19 20" fill="none" xmlns="http://www.w3.org/2000/svg">
<path d="M18 0.625C17.9109 0.625 17.8195 0.641406 17.7281 0.678906L4.21875 6.10703H0.375C0.16875 6.10703 0 6.28047 0 6.49609V13.5039C0 13.7195 0.16875 13.893 0.375 13.893H2.75625C2.66953 14.1648 2.625 14.4531 2.625 14.7461C2.625 16.2906 3.88594 17.5469 5.4375 17.5469C6.73594 17.5469 7.83047 16.6656 8.15391 15.475L17.7305 19.3234C17.8219 19.3586 17.9133 19.3773 18.0023 19.3773C18.3984 19.3773 18.7523 19.0445 18.7523 18.5992V1.40312C18.75 0.957812 18.3984 0.625 18 0.625ZM5.4375 15.8664C4.81641 15.8664 4.3125 15.3648 4.3125 14.7461C4.3125 14.4836 4.40391 14.2328 4.57031 14.0336L6.56016 14.8328C6.51328 15.4094 6.02812 15.8664 5.4375 15.8664Z" fill="white"/>
</svg>
