<svg width="49" height="48" viewBox="0 0 49 48" fill="none" xmlns="http://www.w3.org/2000/svg">
<path d="M30 41.9992H40V17.1992" stroke="black" stroke-width="2" stroke-linecap="round" stroke-linejoin="round"/>
<path d="M8 17.1992V41.9992H18" stroke="black" stroke-width="2" stroke-linecap="round" stroke-linejoin="round"/>
<path d="M4 20L24 6L44 20" stroke="black" stroke-width="2" stroke-linecap="round" stroke-linejoin="round"/>
<path d="M30 42V30C30 27.79 28.21 26 26 26H22C19.79 26 18 27.79 18 30V42" stroke="black" stroke-width="2" stroke-linecap="round" stroke-linejoin="round"/>
<circle cx="38" cy="16" r="10" fill="#ED1B24" stroke="white" stroke-width="2"/>
<path fill-rule="evenodd" clip-rule="evenodd" d="M38.2795 9.10742C38.6349 9.10742 38.9231 9.39556 38.9231 9.751V10.7983H40.8263C41.1817 10.7983 41.4698 11.0864 41.4698 11.4418C41.4698 11.7973 41.1817 12.0854 40.8263 12.0854H38.3843C38.3502 12.091 38.3152 12.0939 38.2795 12.0939C38.2438 12.0939 38.2088 12.091 38.1747 12.0854H37.0005C36.6073 12.0854 36.2304 12.2415 35.9525 12.5192C35.6746 12.7969 35.5186 13.1735 35.5186 13.566C35.5186 13.9586 35.6746 14.3351 35.9525 14.6128C36.2304 14.8905 36.6073 15.0466 37.0005 15.0466H39.551C40.2853 15.0466 40.9895 15.3381 41.5089 15.8571C42.0282 16.3762 42.32 17.0802 42.32 17.8144C42.32 18.5485 42.0282 19.2526 41.5089 19.7716C40.9895 20.2906 40.2853 20.5821 39.551 20.5821H38.9231V21.6382C38.9231 21.9937 38.6349 22.2818 38.2795 22.2818C37.9241 22.2818 37.6359 21.9937 37.6359 21.6382V20.5821H35.7252C35.3698 20.5821 35.0816 20.294 35.0816 19.9385C35.0816 19.5831 35.3698 19.295 35.7252 19.295H39.551C39.9441 19.295 40.3211 19.1389 40.599 18.8612C40.8768 18.5835 41.0329 18.2069 41.0329 17.8144C41.0329 17.4218 40.8768 17.0453 40.599 16.7676C40.3211 16.4899 39.9441 16.3338 39.551 16.3338H37.0005C36.2662 16.3338 35.5619 16.0423 35.0426 15.5233C34.5233 15.0042 34.2314 14.3002 34.2314 13.566C34.2314 12.8318 34.5233 12.1278 35.0426 11.6088C35.5619 11.0898 36.2662 10.7983 37.0005 10.7983H37.6359V9.751C37.6359 9.39556 37.9241 9.10742 38.2795 9.10742Z" fill="white"/>
<path d="M38.9231 10.7983H38.4231C38.4231 11.0744 38.6469 11.2983 38.9231 11.2983V10.7983ZM38.3843 12.0854V11.5854C38.3572 11.5854 38.3302 11.5876 38.3035 11.592L38.3843 12.0854ZM38.1747 12.0854L38.2555 11.592C38.2288 11.5876 38.2018 11.5854 38.1747 11.5854V12.0854ZM35.9525 12.5192L36.3059 12.8729L35.9525 12.5192ZM35.9525 14.6128L36.3059 14.2592L36.3059 14.2592L35.9525 14.6128ZM41.5089 15.8571L41.8623 15.5035L41.5089 15.8571ZM41.5089 19.7716L41.8623 20.1253L41.8623 20.1253L41.5089 19.7716ZM38.9231 20.5821V20.0821C38.6469 20.0821 38.4231 20.306 38.4231 20.5821H38.9231ZM37.6359 20.5821H38.1359C38.1359 20.306 37.9121 20.0821 37.6359 20.0821V20.5821ZM40.599 18.8612L40.9524 19.2148L40.9524 19.2148L40.599 18.8612ZM40.599 16.7676L40.9524 16.4139L40.9524 16.4139L40.599 16.7676ZM35.0426 15.5233L34.6892 15.8769L34.6892 15.8769L35.0426 15.5233ZM35.0426 11.6088L34.6892 11.2551L35.0426 11.6088ZM37.6359 10.7983V11.2983C37.9121 11.2983 38.1359 11.0744 38.1359 10.7983H37.6359ZM39.4231 9.751C39.4231 9.11942 38.9111 8.60742 38.2795 8.60742V9.60742C38.3588 9.60742 38.4231 9.6717 38.4231 9.751H39.4231ZM39.4231 10.7983V9.751H38.4231V10.7983H39.4231ZM38.9231 11.2983H40.8263V10.2983H38.9231V11.2983ZM40.8263 11.2983C40.9056 11.2983 40.9698 11.3626 40.9698 11.4418H41.9698C41.9698 10.8103 41.4578 10.2983 40.8263 10.2983V11.2983ZM40.9698 11.4418C40.9698 11.5211 40.9056 11.5854 40.8263 11.5854V12.5854C41.4578 12.5854 41.9698 12.0734 41.9698 11.4418H40.9698ZM40.8263 11.5854H38.3843V12.5854H40.8263V11.5854ZM38.2795 12.5939C38.3424 12.5939 38.4044 12.5888 38.4651 12.5789L38.3035 11.592C38.296 11.5932 38.288 11.5939 38.2795 11.5939V12.5939ZM38.0939 12.5789C38.1546 12.5888 38.2167 12.5939 38.2795 12.5939V11.5939C38.271 11.5939 38.263 11.5932 38.2555 11.592L38.0939 12.5789ZM38.1747 11.5854H37.0005V12.5854H38.1747V11.5854ZM37.0005 11.5854C36.4748 11.5854 35.9707 11.7941 35.599 12.1656L36.3059 12.8729C36.49 12.6889 36.7398 12.5854 37.0005 12.5854V11.5854ZM35.599 12.1656C35.2274 12.537 35.0186 13.0408 35.0186 13.566H36.0186C36.0186 13.3062 36.1219 13.0568 36.3059 12.8729L35.599 12.1656ZM35.0186 13.566C35.0186 14.0913 35.2274 14.595 35.599 14.9665L36.3059 14.2592C36.1219 14.0752 36.0186 13.8259 36.0186 13.566H35.0186ZM35.599 14.9665C35.9707 15.3379 36.4748 15.5466 37.0005 15.5466V14.5466C36.7398 14.5466 36.49 14.4431 36.3059 14.2592L35.599 14.9665ZM37.0005 15.5466H39.551V14.5466H37.0005V15.5466ZM39.551 15.5466C40.1527 15.5466 40.7299 15.7855 41.1554 16.2108L41.8623 15.5035C41.2492 14.8907 40.4178 14.5466 39.551 14.5466V15.5466ZM41.1554 16.2108C41.5809 16.6361 41.82 17.2129 41.82 17.8144H42.82C42.82 16.9475 42.4754 16.1162 41.8623 15.5035L41.1554 16.2108ZM41.82 17.8144C41.82 18.4158 41.5809 18.9927 41.1554 19.4179L41.8623 20.1253C42.4754 19.5125 42.82 18.6812 42.82 17.8144H41.82ZM41.1554 19.4179C40.7299 19.8432 40.1527 20.0821 39.551 20.0821V21.0821C40.4178 21.0821 41.2492 20.738 41.8623 20.1253L41.1554 19.4179ZM39.551 20.0821H38.9231V21.0821H39.551V20.0821ZM39.4231 21.6382V20.5821H38.4231V21.6382H39.4231ZM38.2795 22.7818C38.9111 22.7818 39.4231 22.2698 39.4231 21.6382H38.4231C38.4231 21.7175 38.3588 21.7818 38.2795 21.7818V22.7818ZM37.1359 21.6382C37.1359 22.2698 37.6479 22.7818 38.2795 22.7818V21.7818C38.2002 21.7818 38.1359 21.7175 38.1359 21.6382H37.1359ZM37.1359 20.5821V21.6382H38.1359V20.5821H37.1359ZM37.6359 20.0821H35.7252V21.0821H37.6359V20.0821ZM35.7252 20.0821C35.6459 20.0821 35.5816 20.0178 35.5816 19.9385H34.5816C34.5816 20.5701 35.0936 21.0821 35.7252 21.0821V20.0821ZM35.5816 19.9385C35.5816 19.8592 35.6459 19.795 35.7252 19.795V18.795C35.0936 18.795 34.5816 19.307 34.5816 19.9385H35.5816ZM35.7252 19.795H39.551V18.795H35.7252V19.795ZM39.551 19.795C40.0766 19.795 40.5807 19.5863 40.9524 19.2148L40.2455 18.5075C40.0614 18.6915 39.8116 18.795 39.551 18.795V19.795ZM40.9524 19.2148C41.3241 18.8434 41.5329 18.3396 41.5329 17.8144H40.5329C40.5329 18.0742 40.4296 18.3236 40.2455 18.5075L40.9524 19.2148ZM41.5329 17.8144C41.5329 17.2891 41.3241 16.7853 40.9524 16.4139L40.2455 17.1212C40.4296 17.3052 40.5329 17.5545 40.5329 17.8144H41.5329ZM40.9524 16.4139C40.5807 16.0425 40.0766 15.8338 39.551 15.8338V16.8338C39.8116 16.8338 40.0614 16.9372 40.2455 17.1212L40.9524 16.4139ZM39.551 15.8338H37.0005V16.8338H39.551V15.8338ZM37.0005 15.8338C36.3987 15.8338 35.8216 15.5949 35.3961 15.1696L34.6892 15.8769C35.3023 16.4897 36.1337 16.8338 37.0005 16.8338V15.8338ZM35.3961 15.1696C34.9705 14.7443 34.7314 14.1675 34.7314 13.566H33.7314C33.7314 14.4329 34.076 15.2641 34.6892 15.8769L35.3961 15.1696ZM34.7314 13.566C34.7314 12.9645 34.9705 12.3877 35.3961 11.9624L34.6892 11.2551C34.076 11.8679 33.7314 12.6991 33.7314 13.566H34.7314ZM35.3961 11.9624C35.8216 11.5372 36.3987 11.2983 37.0005 11.2983V10.2983C36.1337 10.2983 35.3023 10.6424 34.6892 11.2551L35.3961 11.9624ZM37.0005 11.2983H37.6359V10.2983H37.0005V11.2983ZM37.1359 9.751V10.7983H38.1359V9.751H37.1359ZM38.2795 8.60742C37.6479 8.60742 37.1359 9.11942 37.1359 9.751H38.1359C38.1359 9.6717 38.2002 9.60742 38.2795 9.60742V8.60742Z" fill="white"/>
</svg>
