<svg xmlns="http://www.w3.org/2000/svg" width="10" height="10" viewBox="0 0 10 10" fill="none" class="icon-svg">
<path fill-rule="evenodd" clip-rule="evenodd" d="M8.22494 2.29828C8.36957 2.15364 8.36957 1.91913 8.22494 1.77449C8.0803 1.62986 7.84579 1.62986 7.70115 1.77449L5.00008 4.47557L2.29901 1.77449C2.15437 1.62986 1.91987 1.62986 1.77523 1.77449C1.63059 1.91913 1.63059 2.15364 1.77523 2.29828L4.4763 4.99935L1.77523 7.70042C1.63059 7.84506 1.63059 8.07956 1.77523 8.2242C1.91987 8.36884 2.15437 8.36884 2.29901 8.2242L5.00008 5.52313L7.70115 8.2242C7.84579 8.36884 8.0803 8.36884 8.22494 8.2242C8.36957 8.07956 8.36957 7.84506 8.22494 7.70042L5.52386 4.99935L8.22494 2.29828Z" fill="white"></path>
</svg>