<svg width="16" height="17" viewBox="0 0 16 17" fill="none" xmlns="http://www.w3.org/2000/svg">
<path fill-rule="evenodd" clip-rule="evenodd" d="M8.04663 0C8.44716 0 8.77185 0.325329 8.77185 0.726644V10.797L12.5514 7.17574C12.7959 6.94142 13.1924 6.94142 13.437 7.17574C13.6815 7.41005 13.6815 7.78995 13.437 8.02426L8.4272 12.8243C8.18265 13.0586 7.78615 13.0586 7.54159 12.8243L2.53181 8.02426C2.28725 7.78995 2.28725 7.41005 2.53181 7.17574C2.77636 6.94142 3.17286 6.94142 3.41742 7.17574L7.32141 10.9162V0.726644C7.32141 0.325329 7.6461 0 8.04663 0ZM1.47162 14.608V10.7833C1.47162 10.3507 1.14219 10 0.735812 10C0.329434 10 0 10.3507 0 10.7833V15.62C0 15.9028 0.224296 16.132 0.500979 16.132H15.499C15.7757 16.132 16 15.9028 16 15.62V10.8C16 10.3582 15.6636 10 15.2485 10C14.8335 10 14.4971 10.3582 14.4971 10.8V14.608H1.47162Z" fill="#ED1B24"/>
</svg>
